<svg width="23" height="23" viewBox="0 0 23 23" fill="none" xmlns="http://www.w3.org/2000/svg">
    <path d="M6.02727 16.1878H7.74936C7.84407 16.1878 7.92157 16.1103 7.92157 16.0156V6.02752C7.92157 5.9328 7.84407 5.85531 7.74936 5.85531H6.02727C5.93256 5.85531 5.85506 5.9328 5.85506 6.02752V16.0156C5.85506 16.1103 5.93256 16.1878 6.02727 16.1878ZM10.1603 10.1605H11.8824C11.9771 10.1605 12.0546 10.083 12.0546 9.98832V6.02752C12.0546 5.9328 11.9771 5.85531 11.8824 5.85531H10.1603C10.0656 5.85531 9.98807 5.9328 9.98807 6.02752V9.98832C9.98807 10.083 10.0656 10.1605 10.1603 10.1605ZM14.2933 11.7104H16.0154C16.1101 11.7104 16.1876 11.6329 16.1876 11.5382V6.02752C16.1876 5.9328 16.1101 5.85531 16.0154 5.85531H14.2933C14.1986 5.85531 14.1211 5.9328 14.1211 6.02752V11.5382C14.1211 11.6329 14.1986 11.7104 14.2933 11.7104ZM18.9429 2.41113H3.09972C2.71871 2.41113 2.41089 2.71896 2.41089 3.09997V18.9432C2.41089 19.3242 2.71871 19.632 3.09972 19.632H18.9429C19.3239 19.632 19.6318 19.3242 19.6318 18.9432V3.09997C19.6318 2.71896 19.3239 2.41113 18.9429 2.41113ZM18.0819 18.0821H3.96077V3.96101H18.0819V18.0821Z" fill="#5C5A5A"/>
</svg>
