<svg width="23" height="23" viewBox="0 0 23 23" fill="none" xmlns="http://www.w3.org/2000/svg">
    <path d="M11.0214 18.3687V10.1027M11.0214 18.3687C12.4829 18.3687 13.8846 17.7881 14.9181 16.7547C15.9515 15.7212 16.5321 14.3196 16.5321 12.858V10.1027C16.5321 9.12834 16.145 8.1939 15.4561 7.50493C14.7671 6.81596 13.8327 6.4289 12.8583 6.4289H9.18453C8.21018 6.4289 7.27574 6.81596 6.58677 7.50493C5.8978 8.1939 5.51074 9.12834 5.51074 10.1027V12.858C5.51074 14.3196 6.09133 15.7212 7.12478 16.7547C8.15824 17.7881 9.5599 18.3687 11.0214 18.3687ZM12.9685 3.56335L14.6952 1.83667" stroke="#5C5A5A" stroke-width="1.83689" stroke-linecap="round" stroke-linejoin="round"/>
    <path d="M19.2874 19.2872C19.2885 18.3423 18.9255 17.4334 18.2738 16.7492C17.6221 16.065 16.7319 15.6582 15.7881 15.6134M19.2874 4.59201C19.2864 5.49406 18.9535 6.36421 18.3522 7.03663C17.7509 7.70906 16.9232 8.13676 16.0269 8.23824M20.2058 11.9396H16.5321M2.75536 19.2872C2.75429 18.3423 3.11731 17.4334 3.76897 16.7492C4.42064 16.065 5.31085 15.6582 6.25464 15.6134M2.75536 4.59201C2.7564 5.49406 3.08928 6.36421 3.69057 7.03663C4.29185 7.70906 5.11952 8.13676 6.01585 8.23824M5.5107 11.9396H1.83691M7.34759 1.83667L9.07427 3.56335M8.26604 6.5483V5.51046C8.26604 4.77969 8.55633 4.07886 9.07306 3.56214C9.58979 3.04541 10.2906 2.75512 11.0214 2.75512C11.7521 2.75512 12.453 3.04541 12.9697 3.56214C13.4864 4.07886 13.7767 4.77969 13.7767 5.51046V6.5483" stroke="#5C5A5A" stroke-width="1.83689" stroke-linecap="round" stroke-linejoin="round"/>
</svg>
