<svg width="18" height="18" viewBox="0 0 18 18" fill="none" xmlns="http://www.w3.org/2000/svg">
    <path d="M9 16.502C13.0657 16.502 16.5 13.0677 16.5 9.00195C16.5 4.9362 13.0657 1.50195 9 1.50195C4.93425 1.50195 1.5 4.9362 1.5 9.00195C1.5 13.0677 4.93425 16.502 9 16.502ZM9 3.00195C12.2527 3.00195 15 5.7492 15 9.00195C15 12.2547 12.2527 15.002 9 15.002C5.74725 15.002 3 12.2547 3 9.00195C3 5.7492 5.74725 3.00195 9 3.00195Z" fill="white" fill-opacity="0.51"/>
    <path d="M9 12.748C9.67575 12.748 10.9358 12.622 11.7802 11.779L10.7198 10.717C10.3875 11.0493 9.744 11.248 9 11.248C7.7805 11.248 6.75 10.2175 6.75 8.99805C6.75 7.77855 7.7805 6.74805 9 6.74805C9.74475 6.74805 10.3883 6.9468 10.7198 7.2783L11.7802 6.2178C10.9365 5.37405 9.67575 5.24805 9 5.24805C6.93225 5.24805 5.25 6.9303 5.25 8.99805C5.25 11.0658 6.93225 12.748 9 12.748Z" fill="white" fill-opacity="0.51"/>
</svg>
