<svg width="23" height="23" viewBox="0 0 23 23" fill="none" xmlns="http://www.w3.org/2000/svg">
    <path d="M12.8585 8.26605C12.5983 8.26605 12.3803 8.17788 12.2046 8.00154C12.0289 7.8252 11.9407 7.60722 11.9401 7.3476V3.67382C11.9401 3.41359 12.0283 3.19561 12.2046 3.01988C12.3809 2.84415 12.5989 2.75598 12.8585 2.75537H18.3692C18.6294 2.75537 18.8477 2.84354 19.0241 3.01988C19.2004 3.19623 19.2883 3.4142 19.2877 3.67382V7.3476C19.2877 7.60783 19.1995 7.82611 19.0231 8.00246C18.8468 8.1788 18.6288 8.26666 18.3692 8.26605H12.8585ZM3.67406 11.9398C3.41384 11.9398 3.19586 11.8517 3.02013 11.6753C2.8444 11.499 2.75623 11.281 2.75562 11.0214V3.67382C2.75562 3.41359 2.84379 3.19561 3.02013 3.01988C3.19647 2.84415 3.41445 2.75598 3.67406 2.75537H9.18474C9.44497 2.75537 9.66325 2.84354 9.83959 3.01988C10.0159 3.19623 10.1038 3.4142 10.1032 3.67382V11.0214C10.1032 11.2816 10.015 11.4999 9.83868 11.6762C9.66233 11.8526 9.44436 11.9404 9.18474 11.9398H3.67406ZM12.8585 19.2874C12.5983 19.2874 12.3803 19.1992 12.2046 19.0229C12.0289 18.8466 11.9407 18.6286 11.9401 18.369V11.0214C11.9401 10.7612 12.0283 10.5432 12.2046 10.3675C12.3809 10.1917 12.5989 10.1036 12.8585 10.1029H18.3692C18.6294 10.1029 18.8477 10.1911 19.0241 10.3675C19.2004 10.5438 19.2883 10.7618 19.2877 11.0214V18.369C19.2877 18.6292 19.1995 18.8475 19.0231 19.0238C18.8468 19.2002 18.6288 19.288 18.3692 19.2874H12.8585ZM3.67406 19.2874C3.41384 19.2874 3.19586 19.1992 3.02013 19.0229C2.8444 18.8466 2.75623 18.6286 2.75562 18.369V14.6952C2.75562 14.4349 2.84379 14.217 3.02013 14.0412C3.19647 13.8655 3.41445 13.7773 3.67406 13.7767H9.18474C9.44497 13.7767 9.66325 13.8649 9.83959 14.0412C10.0159 14.2176 10.1038 14.4356 10.1032 14.6952V18.369C10.1032 18.6292 10.015 18.8475 9.83868 19.0238C9.66233 19.2002 9.44436 19.288 9.18474 19.2874H3.67406Z" fill="#5C5A5A"/>
</svg>
