<svg width="23" height="23" viewBox="0 0 23 23" fill="none" xmlns="http://www.w3.org/2000/svg">
<path d="M7.34761 11.9398H14.6952V10.1029H7.34761V11.9398ZM7.34761 14.6952H14.6952V12.8583H7.34761V14.6952ZM7.34761 17.4505H11.9398V15.6136H7.34761V17.4505ZM5.51072 20.2058C5.00558 20.2058 4.57329 20.0261 4.21387 19.6667C3.85446 19.3073 3.67444 18.8747 3.67383 18.369V3.67381C3.67383 3.16866 3.85384 2.73638 4.21387 2.37696C4.57391 2.01754 5.00619 1.83753 5.51072 1.83691H12.8583L18.369 7.34759V18.369C18.369 18.8741 18.1893 19.3067 17.8298 19.6667C17.4704 20.0267 17.0378 20.2065 16.5321 20.2058H5.51072ZM11.9398 8.26604V3.67381H5.51072V18.369H16.5321V8.26604H11.9398Z" fill="#5C5A5A"/>
</svg>
