<svg width="22" height="22" viewBox="0 0 22 22" fill="none" xmlns="http://www.w3.org/2000/svg">
    <path d="M6.1875 2.75C5.51893 2.75 4.87775 3.01559 4.405 3.48834C3.93225 3.96108 3.66667 4.60227 3.66667 5.27083V18.7917H3.4375C3.25516 18.7917 3.0803 18.8641 2.95136 18.993C2.82243 19.122 2.75 19.2968 2.75 19.4792C2.75 19.6615 2.82243 19.8364 2.95136 19.9653C3.0803 20.0942 3.25516 20.1667 3.4375 20.1667H15.8125C15.9948 20.1667 16.1697 20.0942 16.2986 19.9653C16.4276 19.8364 16.5 19.6615 16.5 19.4792C16.5 19.2968 16.4276 19.122 16.2986 18.993C16.1697 18.8641 15.9948 18.7917 15.8125 18.7917H15.5833V17.1389C15.967 17.3361 16.3948 17.4314 16.8259 17.4156C17.257 17.3998 17.6767 17.2735 18.0449 17.0487C18.4131 16.8239 18.7173 16.5083 18.9283 16.1321C19.1393 15.7559 19.2501 15.3318 19.25 14.9004V9.54892C19.25 9.00348 19.0731 8.47276 18.7458 8.03642L17.7375 6.69167C17.6281 6.5458 17.4652 6.44936 17.2847 6.42358C17.1042 6.39779 16.9209 6.44476 16.775 6.55417C16.6291 6.66357 16.5327 6.82644 16.5069 7.00694C16.4811 7.18744 16.5281 7.3708 16.6375 7.51667L17.6458 8.86142C17.7943 9.05942 17.875 9.30142 17.875 9.54892V14.9004C17.875 15.0503 17.8455 15.1987 17.7881 15.3372C17.7308 15.4756 17.6467 15.6014 17.5407 15.7074C17.4348 15.8134 17.309 15.8974 17.1705 15.9548C17.032 16.0121 16.8836 16.0417 16.7337 16.0417C16.5839 16.0417 16.4355 16.0121 16.297 15.9548C16.1585 15.8974 16.0327 15.8134 15.9268 15.7074C15.8208 15.6014 15.7367 15.4756 15.6794 15.3372C15.622 15.1987 15.5925 15.0503 15.5925 14.9004V13.2917C15.5917 13.2545 15.5886 13.2175 15.5833 13.1807V5.27083C15.5833 4.93979 15.5181 4.61199 15.3914 4.30615C15.2648 4.00031 15.0791 3.72242 14.845 3.48834C14.6109 3.25425 14.333 3.06857 14.0272 2.94189C13.7213 2.8152 13.3935 2.75 13.0625 2.75H6.1875ZM6.41667 6.1875C6.41667 6.00516 6.4891 5.8303 6.61803 5.70136C6.74696 5.57243 6.92183 5.5 7.10417 5.5H12.1458C12.3282 5.5 12.503 5.57243 12.632 5.70136C12.7609 5.8303 12.8333 6.00516 12.8333 6.1875V9.39583C12.8333 9.57817 12.7609 9.75304 12.632 9.88197C12.503 10.0109 12.3282 10.0833 12.1458 10.0833H7.10417C6.92183 10.0833 6.74696 10.0109 6.61803 9.88197C6.4891 9.75304 6.41667 9.57817 6.41667 9.39583V6.1875Z" fill="#5C5A5A"/>
</svg>
