<svg width="35" height="35" viewBox="0 0 35 35" fill="none" xmlns="http://www.w3.org/2000/svg">
<path d="M17.4999 29.9998C24.4036 29.9998 29.9998 24.4036 29.9998 17.4999C29.9998 10.5962 24.4036 5 17.4999 5C10.5962 5 5 10.5962 5 17.4999C5 24.4036 10.5962 29.9998 17.4999 29.9998Z" stroke="white" stroke-opacity="0.51" stroke-width="2" stroke-linecap="round" stroke-linejoin="round"/>
<path d="M4.99994 17.5H29.9998" stroke="white" stroke-opacity="0.51" stroke-width="2" stroke-linecap="round" stroke-linejoin="round"/>
<path d="M17.5 29.9998C20.2612 29.9998 22.4999 24.4036 22.4999 17.4999C22.4999 10.5962 20.2612 5 17.5 5C14.7387 5 12.5 10.5962 12.5 17.4999C12.5 24.4036 14.7387 29.9998 17.5 29.9998Z" stroke="white" stroke-opacity="0.51" stroke-width="2" stroke-linecap="round" stroke-linejoin="round"/>
<path d="M8.66113 8.83984C9.82061 10.0022 11.1983 10.9241 12.7152 11.5524C14.232 12.1807 15.858 12.5031 17.4998 12.5011C19.1416 12.5031 20.7677 12.1807 22.2845 11.5524C23.8013 10.9241 25.179 10.0022 26.3385 8.83984M26.3385 26.1622C25.179 24.9998 23.8013 24.078 22.2845 23.4497C20.7677 22.8214 19.1416 22.499 17.4998 22.501C15.858 22.499 14.232 22.8214 12.7152 23.4497C11.1983 24.078 9.82061 24.9998 8.66113 26.1622" stroke="white" stroke-opacity="0.51" stroke-width="2" stroke-linecap="round" stroke-linejoin="round"/>
</svg>
