<svg width="28" height="28" viewBox="0 0 28 28" fill="none" xmlns="http://www.w3.org/2000/svg">
    <path fill-rule="evenodd" clip-rule="evenodd" d="M3.5 8.16667C3.5 6.53333 3.5 5.71667 3.81733 5.0925C4.09701 4.54341 4.54341 4.09701 5.0925 3.81733C5.71667 3.5 6.53333 3.5 8.16667 3.5H19.8333C21.4667 3.5 22.2833 3.5 22.9075 3.81733C23.4562 4.09721 23.9021 4.54359 24.1815 5.0925C24.5 5.71667 24.5 6.53333 24.5 8.16667V19.8333C24.5 21.4667 24.5 22.2833 24.1815 22.9075C23.9019 23.456 23.456 23.9019 22.9075 24.1815C22.2833 24.5 21.4667 24.5 19.8333 24.5H8.16667C6.53333 24.5 5.71667 24.5 5.0925 24.1815C4.54359 23.9021 4.09721 23.4562 3.81733 22.9075C3.5 22.2833 3.5 21.4667 3.5 19.8333V8.16667ZM12.635 12.8333C12.3598 12.0546 11.8181 11.3982 11.1057 10.9802C10.3933 10.5623 9.55614 10.4096 8.74208 10.5492C7.92802 10.6888 7.18953 11.1118 6.65715 11.7432C6.12476 12.3747 5.83276 13.1741 5.83276 14C5.83276 14.8259 6.12476 15.6253 6.65715 16.2568C7.18953 16.8882 7.92802 17.3112 8.74208 17.4508C9.55614 17.5904 10.3933 17.4377 11.1057 17.0198C11.8181 16.6018 12.3598 15.9454 12.635 15.1667H15.1667V16.3333C15.1667 16.6428 15.2896 16.9395 15.5084 17.1583C15.7272 17.3771 16.0239 17.5 16.3333 17.5C16.6428 17.5 16.9395 17.3771 17.1583 17.1583C17.3771 16.9395 17.5 16.6428 17.5 16.3333V15.1667H18.6667V16.3333C18.6667 16.6428 18.7896 16.9395 19.0084 17.1583C19.2272 17.3771 19.5239 17.5 19.8333 17.5C20.1428 17.5 20.4395 17.3771 20.6583 17.1583C20.8771 16.9395 21 16.6428 21 16.3333V14.175C21 13.8192 20.8586 13.4779 20.607 13.2263C20.3554 12.9747 20.0142 12.8333 19.6583 12.8333H12.635ZM10.5 14C10.5 13.6906 10.3771 13.3938 10.1583 13.175C9.9395 12.9562 9.64275 12.8333 9.33333 12.8333C9.02391 12.8333 8.72717 12.9562 8.50838 13.175C8.28958 13.3938 8.16667 13.6906 8.16667 14C8.16667 14.3094 8.28958 14.6062 8.50838 14.825C8.72717 15.0437 9.02391 15.1667 9.33333 15.1667C9.64275 15.1667 9.9395 15.0437 10.1583 14.825C10.3771 14.6062 10.5 14.3094 10.5 14Z" fill="#274AC9"/>
</svg>
