<svg width="48" height="50" viewBox="0 0 48 50" fill="none" xmlns="http://www.w3.org/2000/svg">
<mask id="mask0_4350_15" style="mask-type:alpha" maskUnits="userSpaceOnUse" x="2" y="2" width="44" height="46">
<path d="M44.0887 9.76944H31.3347C30.5147 9.76944 29.8078 10.3462 29.6433 11.1495L19.7517 45.927C19.5324 46.9976 20.3503 48 21.4431 48H34.1971C35.0171 48 35.724 47.4232 35.8886 46.6199L45.7802 11.8424C45.9995 10.7719 45.1815 9.76944 44.0887 9.76944Z" fill="white"/>
<path d="M26.3728 2H13.6187C12.7988 2 12.0919 2.57676 11.9273 3.38007L2.03573 38.1576C1.81644 39.2281 2.63435 40.2306 3.72715 40.2306H16.4812C17.3012 40.2306 18.0081 39.6538 18.1726 38.8505L28.0642 4.07301C28.2835 3.00244 27.4656 2 26.3728 2Z" fill="white"/>
</mask>
<g mask="url(#mask0_4350_15)">
<g filter="url(#filter0_f_4350_15)">
<path d="M53.8447 16.3645L2.41245 36.5521L-2.88032 30.7218L53.8447 16.3645Z" fill="#FD36FF"/>
<path d="M51.5909 16.267L51.5909 31.3571L-2.195 40.483C-2.195 40.483 7.66727 24.0194 21.2984 25.4513C32.6134 26.64 51.5909 16.267 51.5909 16.267Z" fill="#B700FF"/>
<path d="M55.0581 24.6236L48.1817 39.1003L-7.1253 41.7247C-7.1253 41.7247 13.6391 25.8431 22.718 33.2665C28.2985 37.8296 55.0581 24.6236 55.0581 24.6236Z" fill="#0033FF"/>
<path d="M46.7032 40.2617L2.5867 40.6339L-3.89236 62.8289L46.7032 40.2617Z" fill="#009DFF"/>
<path d="M13.3151 55.2086L53.0397 34.9619L58.3195 44.1233L13.3151 55.2086Z" fill="#00FF6F"/>
<path d="M78.1607 8.59551L-27.3794 42.605L-26.5707 35.876L78.1607 8.59551Z" fill="#FF0000"/>
<path d="M123.011 0.595598L-6.9326 30.4295L-4.54789 13.2872L123.011 0.595598Z" fill="#F3D556"/>
<path d="M-12.2985 14.5232L77.2384 7.45922L70.5804 -5.74238L-12.2985 14.5232Z" fill="#E3F2E3"/>
<path d="M74.2366 -8.90052L-11.9663 16.3149L-10.4342 1.609L74.2366 -8.90052Z" fill="white"/>
</g>
</g>
<mask id="mask1_4350_15" style="mask-type:alpha" maskUnits="userSpaceOnUse" x="2" y="2" width="44" height="46">
<path d="M44.0887 9.76944H31.3347C30.5147 9.76944 29.8078 10.3462 29.6433 11.1495L19.7517 45.927C19.5324 46.9976 20.3503 48 21.4431 48H34.1971C35.0171 48 35.724 47.4232 35.8886 46.6199L45.7802 11.8424C45.9995 10.7719 45.1815 9.76944 44.0887 9.76944Z" fill="white"/>
<path d="M26.3728 2H13.6187C12.7988 2 12.0919 2.57676 11.9273 3.38007L2.03573 38.1576C1.81644 39.2281 2.63435 40.2306 3.72715 40.2306H16.4812C17.3012 40.2306 18.0081 39.6538 18.1726 38.8505L28.0642 4.07301C28.2835 3.00244 27.4656 2 26.3728 2Z" fill="white"/>
</mask>
<g mask="url(#mask1_4350_15)">
<g filter="url(#filter1_f_4350_15)">
<path d="M53.8447 16.3645L2.41245 36.5521L-2.88032 30.7218L53.8447 16.3645Z" fill="#FD36FF"/>
<path d="M51.5909 16.267L51.5909 31.3571L-2.195 40.483C-2.195 40.483 7.66727 24.0194 21.2984 25.4513C32.6134 26.64 51.5909 16.267 51.5909 16.267Z" fill="#B700FF"/>
<path d="M55.0581 24.6236L48.1817 39.1003L-7.1253 41.7247C-7.1253 41.7247 13.6391 25.8431 22.718 33.2665C28.2985 37.8296 55.0581 24.6236 55.0581 24.6236Z" fill="#0033FF"/>
<path d="M46.7032 40.2617L2.5867 40.6339L-3.89236 62.8289L46.7032 40.2617Z" fill="#009DFF"/>
<path d="M13.3151 55.2086L53.0397 34.9619L58.3195 44.1233L13.3151 55.2086Z" fill="#00FF6F"/>
<path d="M78.1607 8.59551L-27.3794 42.605L-26.5707 35.876L78.1607 8.59551Z" fill="#FF0000"/>
<path d="M123.011 0.595598L-6.9326 30.4295L-4.54789 13.2872L123.011 0.595598Z" fill="#F3D556"/>
<path d="M-12.2985 14.5232L77.2384 7.45922L70.5804 -5.74238L-12.2985 14.5232Z" fill="#E3F2E3"/>
<path d="M74.2366 -8.90052L-11.9663 16.3149L-10.4342 1.609L74.2366 -8.90052Z" fill="white"/>
</g>
</g>
<defs>
<filter id="filter0_f_4350_15" x="-29.1515" y="-10.673" width="153.934" height="75.2747" filterUnits="userSpaceOnUse" color-interpolation-filters="sRGB">
<feFlood flood-opacity="0" result="BackgroundImageFix"/>
<feBlend mode="normal" in="SourceGraphic" in2="BackgroundImageFix" result="shape"/>
<feGaussianBlur stdDeviation="0.88631" result="effect1_foregroundBlur_4350_15"/>
</filter>
<filter id="filter1_f_4350_15" x="-37.7561" y="-19.2776" width="171.143" height="92.4839" filterUnits="userSpaceOnUse" color-interpolation-filters="sRGB">
<feFlood flood-opacity="0" result="BackgroundImageFix"/>
<feBlend mode="normal" in="SourceGraphic" in2="BackgroundImageFix" result="shape"/>
<feGaussianBlur stdDeviation="5.1886" result="effect1_foregroundBlur_4350_15"/>
</filter>
</defs>
</svg>
