<svg width="250" height="250" viewBox="0 0 250 250" fill="none" xmlns="http://www.w3.org/2000/svg">
<path d="M228.21 47.4486H163.298C159.125 47.4486 155.527 50.384 154.69 54.4725L104.347 231.472C103.231 236.92 107.393 242.022 112.955 242.022H177.867C182.04 242.022 185.638 239.087 186.475 234.998L236.818 57.9992C237.934 52.5505 233.772 47.4486 228.21 47.4486Z" fill="white"/>
<path d="M138.045 7.90625H73.1333C68.96 7.90625 65.3624 10.8416 64.5249 14.9301L14.1819 191.929C13.0658 197.378 17.2285 202.48 22.7903 202.48H87.7017C91.875 202.48 95.4727 199.544 96.3102 195.456L146.653 18.4568C147.769 13.0081 143.607 7.90625 138.045 7.90625Z" fill="white"/>
</svg>
