<svg width="49" height="52" viewBox="0 0 49 52" fill="none" xmlns="http://www.w3.org/2000/svg">
    <mask id="mask0_5117_421" style="mask-type:alpha" maskUnits="userSpaceOnUse" x="1" y="1" width="46" height="49">
        <path d="M45.199 9.83305H32.056C31.211 9.83305 30.4826 10.4274 30.313 11.2552L20.1197 47.0933C19.8938 48.1965 20.7366 49.2296 21.8627 49.2296H35.0057C35.8507 49.2296 36.5792 48.6352 36.7488 47.8074L46.942 11.9693C47.168 10.8661 46.3251 9.83305 45.199 9.83305Z" fill="white"/>
        <path d="M26.9428 1.82666H13.7997C12.9547 1.82666 12.2263 2.42101 12.0567 3.24882L1.86348 39.0869C1.6375 40.1902 2.48036 41.2232 3.60649 41.2232H16.7495C17.5945 41.2232 18.3229 40.6288 18.4925 39.801L28.6858 3.96289C28.9117 2.85967 28.0689 1.82666 26.9428 1.82666Z" fill="white"/>
    </mask>
    <g mask="url(#mask0_5117_421)">
        <g filter="url(#filter0_f_5117_421)">
            <path d="M55.2489 16.6221L2.24805 37.4255L-3.20614 31.4174L55.2489 16.6221Z" fill="white"/>
            <path d="M52.9272 16.5228L52.9272 32.0732L-2.49905 41.4774C-2.49905 41.4774 7.664 24.5117 21.7109 25.9873C33.3709 27.2122 52.9272 16.5228 52.9272 16.5228Z" fill="white"/>
            <path d="M56.4986 25.1356L49.4126 40.0538L-7.58121 42.7582C-7.58121 42.7582 13.8164 26.3922 23.1722 34.0421C28.9229 38.7443 56.4986 25.1356 56.4986 25.1356Z" fill="white"/>
            <path d="M47.8907 41.2529L2.42873 41.6364L-4.24792 64.5083L47.8907 41.2529Z" fill="white"/>
            <path d="M13.4822 56.6493L54.4183 35.7851L59.8591 45.2259L13.4822 56.6493Z" fill="white"/>
            <path d="M80.3044 8.61463L-28.4544 43.6613L-27.6211 36.7271L80.3044 8.61463Z" fill="white"/>
            <path d="M126.524 0.374365L-7.38236 31.1181L-4.92492 13.4531L126.524 0.374365Z" fill="white"/>
            <path d="M-12.9108 14.7255L79.3568 7.44607L72.4956 -6.15815L-12.9108 14.7255Z" fill="white"/>
            <path d="M76.259 -9.40966L-12.5729 16.5748L-10.9941 1.42037L76.259 -9.40966Z" fill="white"/>
        </g>
    </g>
    <mask id="mask1_5117_421" style="mask-type:alpha" maskUnits="userSpaceOnUse" x="1" y="1" width="46" height="49">
        <path d="M45.199 9.83305H32.056C31.211 9.83305 30.4826 10.4274 30.313 11.2552L20.1197 47.0933C19.8938 48.1965 20.7366 49.2296 21.8627 49.2296H35.0057C35.8507 49.2296 36.5792 48.6352 36.7488 47.8074L46.942 11.9693C47.168 10.8661 46.3251 9.83305 45.199 9.83305Z" fill="white"/>
        <path d="M26.9428 1.82666H13.7997C12.9547 1.82666 12.2263 2.42101 12.0567 3.24882L1.86348 39.0869C1.6375 40.1902 2.48036 41.2232 3.60649 41.2232H16.7495C17.5945 41.2232 18.3229 40.6288 18.4925 39.801L28.6858 3.96289C28.9117 2.85967 28.0689 1.82666 26.9428 1.82666Z" fill="white"/>
    </mask>
    <g mask="url(#mask1_5117_421)">
        <g filter="url(#filter1_f_5117_421)">
            <path d="M55.2489 16.6221L2.24805 37.4255L-3.20614 31.4174L55.2489 16.6221Z" fill="white"/>
            <path d="M52.9272 16.5228L52.9272 32.0732L-2.49905 41.4774C-2.49905 41.4774 7.664 24.5117 21.7109 25.9873C33.3709 27.2122 52.9272 16.5228 52.9272 16.5228Z" fill="white"/>
            <path d="M56.4986 25.1356L49.4126 40.0538L-7.58121 42.7582C-7.58121 42.7582 13.8164 26.3922 23.1722 34.0421C28.9229 38.7443 56.4986 25.1356 56.4986 25.1356Z" fill="white"/>
            <path d="M47.8907 41.2529L2.42873 41.6364L-4.24792 64.5083L47.8907 41.2529Z" fill="white"/>
            <path d="M13.4822 56.6493L54.4183 35.7851L59.8591 45.2259L13.4822 56.6493Z" fill="white"/>
            <path d="M80.3044 8.61463L-28.4544 43.6613L-27.6211 36.7271L80.3044 8.61463Z" fill="white"/>
            <path d="M126.524 0.374365L-7.38236 31.1181L-4.92492 13.4531L126.524 0.374365Z" fill="white"/>
            <path d="M-12.9108 14.7255L79.3568 7.44607L72.4956 -6.15815L-12.9108 14.7255Z" fill="white"/>
            <path d="M76.259 -9.40966L-12.5729 16.5748L-10.9941 1.42037L76.259 -9.40966Z" fill="white"/>
        </g>
    </g>
    <defs>
        <filter id="filter0_f_5117_421" x="-30.281" y="-11.2363" width="158.631" height="77.5713" filterUnits="userSpaceOnUse" color-interpolation-filters="sRGB">
            <feFlood flood-opacity="0" result="BackgroundImageFix"/>
            <feBlend mode="normal" in="SourceGraphic" in2="BackgroundImageFix" result="shape"/>
            <feGaussianBlur stdDeviation="0.91334" result="effect1_foregroundBlur_5117_421"/>
        </filter>
        <filter id="filter1_f_5117_421" x="-39.148" y="-20.1034" width="176.365" height="95.3053" filterUnits="userSpaceOnUse" color-interpolation-filters="sRGB">
            <feFlood flood-opacity="0" result="BackgroundImageFix"/>
            <feBlend mode="normal" in="SourceGraphic" in2="BackgroundImageFix" result="shape"/>
            <feGaussianBlur stdDeviation="5.34684" result="effect1_foregroundBlur_5117_421"/>
        </filter>
    </defs>
</svg>
