<svg width="23" height="23" viewBox="0 0 23 23" fill="none" xmlns="http://www.w3.org/2000/svg">
    <path d="M9.64371 10.5622C8.57027 10.5622 7.65135 10.18 6.88693 9.41554C6.12252 8.65113 5.74031 7.7322 5.74031 6.65877C5.74031 5.58533 6.12252 4.66641 6.88693 3.90199C7.65135 3.13758 8.57027 2.75537 9.64371 2.75537C10.7171 2.75537 11.6361 3.13758 12.4005 3.90199C13.1649 4.66641 13.5471 5.58533 13.5471 6.65877C13.5471 7.7322 13.1649 8.65113 12.4005 9.41554C11.6361 10.18 10.7171 10.5622 9.64371 10.5622ZM1.83691 18.369V15.6366C1.83691 15.0836 1.97939 14.5755 2.26434 14.1123C2.54928 13.6491 2.92726 13.2952 3.39827 13.0506C4.40665 12.5464 5.43129 12.1684 6.4722 11.9166C7.5131 11.6649 8.57027 11.5387 9.64371 11.538C10.7171 11.5374 11.7743 11.6636 12.8152 11.9166C13.8561 12.1697 14.8808 12.5477 15.8891 13.0506C16.3608 13.2945 16.7391 13.6485 17.0241 14.1123C17.309 14.5762 17.4512 15.0843 17.4505 15.6366V18.369H1.83691Z" fill="#5C5A5A"/>
</svg>
