<svg width="35" height="35" viewBox="0 0 35 35" fill="none" xmlns="http://www.w3.org/2000/svg">
<path d="M17.8718 20.3397C18.7781 20.4314 19.6179 20.8513 20.2284 21.5182C20.839 22.1851 21.177 23.0517 21.1771 23.9502C21.1771 25.816 20.0238 27.3599 18.473 28.3787C16.9148 29.4047 14.829 30 12.5886 30C10.3482 30 8.26238 29.4047 6.70417 28.3787C5.15087 27.3623 4 25.816 4 23.9502C4 22.9875 4.3878 22.0642 5.07809 21.3835C5.76837 20.7028 6.7046 20.3204 7.68081 20.3204H17.4963L17.8718 20.3397ZM27.3192 20.3204C28.2954 20.3204 29.2316 20.7028 29.9219 21.3835C30.6122 22.0642 31 22.9875 31 23.9502C31 25.6321 29.9399 26.8807 28.5878 27.6478C27.2431 28.4101 25.4837 28.79 23.6384 28.79C23.0167 28.7884 22.4106 28.7433 21.82 28.6545C22.8826 27.4155 23.6335 25.8329 23.6335 23.9502C23.6306 22.6401 23.1966 21.3663 22.3967 20.3204H27.3192ZM12.5935 7.00116C13.3291 6.9862 14.0604 7.11621 14.7445 7.38357C15.4285 7.65094 16.0516 8.05028 16.5771 8.55818C17.1027 9.06608 17.5201 9.67233 17.8049 10.3414C18.0898 11.0104 18.2364 11.7288 18.236 12.4545C18.2357 13.1801 18.0885 13.8984 17.803 14.5672C17.5176 15.236 17.0996 15.8419 16.5736 16.3493C16.0476 16.8568 15.4242 17.2556 14.7399 17.5223C14.0556 17.7891 13.3242 17.9185 12.5886 17.9029C11.1428 17.8728 9.76649 17.2853 8.75477 16.2664C7.74305 15.2474 7.17645 13.8781 7.17645 12.452C7.17645 11.0259 7.74305 9.65661 8.75477 8.63765C9.76649 7.61868 11.1428 7.0312 12.5886 7.00116M24.2445 9.42349C24.8084 9.42349 25.3668 9.53303 25.8878 9.74585C26.4088 9.95867 26.8822 10.2706 27.281 10.6638C27.6798 11.0571 27.9961 11.5239 28.2119 12.0377C28.4277 12.5515 28.5388 13.1022 28.5388 13.6583C28.5388 14.2145 28.4277 14.7651 28.2119 15.2789C27.9961 15.7927 27.6798 16.2596 27.281 16.6528C26.8822 17.0461 26.4088 17.358 25.8878 17.5708C25.3668 17.7836 24.8084 17.8932 24.2445 17.8932C23.1056 17.8932 22.0133 17.447 21.208 16.6528C20.4026 15.8586 19.9502 14.7815 19.9502 13.6583C19.9502 12.5352 20.4026 11.458 21.208 10.6638C22.0133 9.86966 23.1056 9.42349 24.2445 9.42349Z" fill="white"/>
</svg>
