<svg width="23" height="23" viewBox="0 0 23 23" fill="none" xmlns="http://www.w3.org/2000/svg">
    <path d="M3.67381 2.75537C3.18663 2.75537 2.71941 2.9489 2.37493 3.29338C2.03044 3.63787 1.83691 4.10509 1.83691 4.59226V17.4505C1.83691 17.9377 2.03044 18.4049 2.37493 18.7494C2.71941 19.0939 3.18663 19.2874 3.67381 19.2874H18.369C18.8561 19.2874 19.3233 19.0939 19.6678 18.7494C20.0123 18.4049 20.2058 17.9377 20.2058 17.4505V4.59226C20.2058 4.10509 20.0123 3.63787 19.6678 3.29338C19.3233 2.9489 18.8561 2.75537 18.369 2.75537H3.67381ZM18.369 4.59226V8.26605H3.67381V4.59226H18.369ZM3.67381 10.1029H18.369V17.4505H3.67381V10.1029ZM9.18449 6.42916C9.18449 6.67274 9.08772 6.90635 8.91548 7.0786C8.74324 7.25084 8.50963 7.3476 8.26604 7.3476C8.02245 7.3476 7.78884 7.25084 7.6166 7.0786C7.44436 6.90635 7.34759 6.67274 7.34759 6.42916C7.34759 6.18557 7.44436 5.95196 7.6166 5.77972C7.78884 5.60748 8.02245 5.51071 8.26604 5.51071C8.50963 5.51071 8.74324 5.60748 8.91548 5.77972C9.08772 5.95196 9.18449 6.18557 9.18449 6.42916ZM5.5107 7.3476C5.75429 7.3476 5.9879 7.25084 6.16014 7.0786C6.33238 6.90635 6.42915 6.67274 6.42915 6.42916C6.42915 6.18557 6.33238 5.95196 6.16014 5.77972C5.9879 5.60748 5.75429 5.51071 5.5107 5.51071C5.26711 5.51071 5.0335 5.60748 4.86126 5.77972C4.68902 5.95196 4.59225 6.18557 4.59225 6.42916C4.59225 6.67274 4.68902 6.90635 4.86126 7.0786C5.0335 7.25084 5.26711 7.3476 5.5107 7.3476Z" fill="#5C5A5A"/>
</svg>
