<svg width="23" height="23" viewBox="0 0 23 23" fill="none" xmlns="http://www.w3.org/2000/svg">
    <path d="M18.277 11.6271C18.1298 11.4595 18.0486 11.244 18.0486 11.0209C18.0486 10.7978 18.1298 10.5824 18.277 10.4147L19.4526 9.09218C19.5822 8.94768 19.6626 8.76586 19.6824 8.57281C19.7022 8.37975 19.6604 8.18539 19.5628 8.0176L17.726 4.83977C17.6294 4.67218 17.4825 4.53933 17.306 4.46017C17.1295 4.38101 16.9326 4.35957 16.7432 4.39892L15.0165 4.74793C14.7968 4.79333 14.5681 4.75674 14.3735 4.64506C14.1789 4.53339 14.032 4.35436 13.9603 4.14176L13.4001 2.461C13.3385 2.27858 13.2211 2.12013 13.0645 2.00806C12.9079 1.89599 12.7201 1.83596 12.5275 1.83645H8.85376C8.65348 1.826 8.45528 1.88139 8.28944 1.99416C8.12359 2.10694 7.99922 2.2709 7.93532 2.461L7.42098 4.14176C7.34935 4.35436 7.20237 4.53339 7.00779 4.64506C6.81321 4.75674 6.58448 4.79333 6.36477 4.74793L4.59217 4.39892C4.41266 4.37355 4.22966 4.40188 4.06622 4.48033C3.90278 4.55878 3.76621 4.68385 3.67372 4.83977L1.83683 8.0176C1.73687 8.18352 1.69192 8.37679 1.70842 8.56979C1.72491 8.76279 1.802 8.94563 1.92867 9.09218L3.0951 10.4147C3.24235 10.5824 3.32355 10.7978 3.32355 11.0209C3.32355 11.244 3.24235 11.4595 3.0951 11.6271L1.92867 12.9497C1.802 13.0962 1.72491 13.279 1.70842 13.472C1.69192 13.665 1.73687 13.8583 1.83683 14.0242L3.67372 17.2021C3.77025 17.3697 3.91722 17.5025 4.09368 17.5817C4.27015 17.6608 4.4671 17.6823 4.65646 17.6429L6.38314 17.2939C6.60285 17.2485 6.83158 17.2851 7.02616 17.3968C7.22074 17.5084 7.36772 17.6875 7.43935 17.9001L7.99961 19.5808C8.06351 19.7709 8.18788 19.9349 8.35373 20.0477C8.51957 20.1604 8.71777 20.2158 8.91805 20.2054H12.5918C12.7844 20.2059 12.9722 20.1459 13.1288 20.0338C13.2854 19.9217 13.4027 19.7633 13.4644 19.5808L14.0246 17.9001C14.0963 17.6875 14.2432 17.5084 14.4378 17.3968C14.6324 17.2851 14.8611 17.2485 15.0808 17.2939L16.8075 17.6429C16.9969 17.6823 17.1938 17.6608 17.3703 17.5817C17.5468 17.5025 17.6937 17.3697 17.7902 17.2021L19.6271 14.0242C19.7247 13.8565 19.7665 13.6621 19.7467 13.469C19.7269 13.276 19.6465 13.0942 19.5169 12.9497L18.277 11.6271ZM16.9085 12.8578L17.6433 13.6844L16.4677 15.7234L15.3839 15.5029C14.7224 15.3677 14.0343 15.4801 13.4502 15.8187C12.8661 16.1573 12.4267 16.6986 12.2153 17.3398L11.8663 18.3685H9.51504L9.1844 17.3215C8.97303 16.6802 8.53357 16.1389 7.94946 15.8003C7.36535 15.4617 6.67725 15.3494 6.01576 15.4846L4.93199 15.705L3.73801 13.6752L4.47277 12.8486C4.92461 12.3435 5.1744 11.6895 5.1744 11.0117C5.1744 10.334 4.92461 9.68001 4.47277 9.17484L3.73801 8.34824L4.91363 6.32766L5.99739 6.54808C6.65888 6.6833 7.34698 6.57094 7.93109 6.23232C8.5152 5.89371 8.95466 5.35241 9.16603 4.71119L9.51504 3.67335H11.8663L12.2153 4.72038C12.4267 5.3616 12.8661 5.90289 13.4502 6.24151C14.0343 6.58012 14.7224 6.69248 15.3839 6.55727L16.4677 6.33684L17.6433 8.37579L16.9085 9.2024C16.4618 9.7064 16.2151 10.3566 16.2151 11.0301C16.2151 11.7036 16.4618 12.3538 16.9085 12.8578ZM10.6907 7.34713C9.96405 7.34713 9.25376 7.5626 8.64961 7.96628C8.04546 8.36996 7.57458 8.94373 7.29652 9.61502C7.01846 10.2863 6.94571 11.025 7.08746 11.7376C7.22921 12.4503 7.57911 13.1049 8.0929 13.6187C8.60668 14.1325 9.26129 14.4824 9.97394 14.6241C10.6866 14.7659 11.4253 14.6931 12.0966 14.4151C12.7678 14.137 13.3416 13.6661 13.7453 13.062C14.149 12.4578 14.3644 11.7475 14.3644 11.0209C14.3644 10.0466 13.9774 9.11213 13.2884 8.42316C12.5994 7.73419 11.665 7.34713 10.6907 7.34713ZM10.6907 12.8578C10.3274 12.8578 9.97221 12.7501 9.67013 12.5482C9.36806 12.3464 9.13262 12.0595 8.99359 11.7239C8.85456 11.3882 8.81818 11.0189 8.88906 10.6626C8.95993 10.3062 9.13488 9.97893 9.39177 9.72204C9.64867 9.46515 9.97597 9.2902 10.3323 9.21932C10.6886 9.14844 11.058 9.18482 11.3936 9.32385C11.7293 9.46288 12.0161 9.69832 12.218 10.0004C12.4198 10.3025 12.5275 10.6576 12.5275 11.0209C12.5275 11.5081 12.334 11.9753 11.9895 12.3198C11.6451 12.6643 11.1778 12.8578 10.6907 12.8578Z" fill="#5C5A5A"/>
</svg>
