<svg width="31" height="31" viewBox="0 0 31 31" fill="none" xmlns="http://www.w3.org/2000/svg">
<path d="M24.18 19.0648C24.6321 17.9669 24.8775 16.7915 24.8775 15.4998C24.8775 14.5698 24.7355 13.6786 24.49 12.8519C23.6505 13.0457 22.7721 13.149 21.855 13.149C19.9769 13.151 18.1258 12.7015 16.4579 11.8382C14.7899 10.975 13.3538 9.72343 12.2709 8.18899C11.1135 10.9929 8.92768 13.248 6.16129 14.4923C6.10962 14.8152 6.10962 15.164 6.10962 15.4998C6.10962 16.733 6.35251 17.9541 6.82443 19.0934C7.29634 20.2327 7.98803 21.2679 8.86001 22.1398C10.6211 23.9009 13.0095 24.8902 15.5 24.8902C16.8563 24.8902 18.1609 24.5932 19.3363 24.0636C20.0725 25.4715 20.4084 26.169 20.3825 26.169C18.2642 26.8794 16.6238 27.2282 15.5 27.2282C12.3742 27.2282 9.39046 26.0011 7.19462 23.7923C5.85781 22.4618 4.86481 20.826 4.30129 19.0261H2.58337V13.149H3.99129C4.41785 11.0726 5.39855 9.15052 6.82933 7.58654C8.2601 6.02257 10.0876 4.8751 12.1178 4.26588C14.1481 3.65667 16.3054 3.60844 18.3609 4.12632C20.4164 4.64419 22.2933 5.70885 23.7925 7.20732C25.4198 8.82911 26.53 10.8967 26.983 13.149H28.4167V19.0261H28.3392L23.7409 23.2498L16.895 22.4748V20.3177H23.1338L24.18 19.0648ZM11.9738 15.2027C12.3613 15.2027 12.7359 15.3577 13.0071 15.6419C13.2797 15.9167 13.4327 16.2881 13.4327 16.6752C13.4327 17.0623 13.2797 17.4337 13.0071 17.7086C12.7359 17.9798 12.3613 18.1348 11.9738 18.1348C11.16 18.1348 10.5013 17.489 10.5013 16.6752C10.5013 15.8615 11.16 15.2027 11.9738 15.2027ZM19.0134 15.2027C19.8271 15.2027 20.473 15.8615 20.473 16.6752C20.473 17.489 19.8271 18.1348 19.0134 18.1348C18.1996 18.1348 17.5409 17.489 17.5409 16.6752C17.5409 16.2847 17.696 15.9102 17.9722 15.634C18.2483 15.3579 18.6228 15.2027 19.0134 15.2027Z" fill="white" fill-opacity="0.51"/>
</svg>
