<svg width="23" height="23" viewBox="0 0 23 23" fill="none" xmlns="http://www.w3.org/2000/svg">
    <path d="M10.9755 16.5321C11.2969 16.5321 11.5688 16.4209 11.791 16.1987C12.0133 15.9764 12.1241 15.7048 12.1235 15.384C12.1229 15.0632 12.0121 14.7913 11.791 14.5684C11.57 14.3455 11.2981 14.2347 10.9755 14.2359C10.6528 14.2372 10.3812 14.3483 10.1608 14.5693C9.94037 14.7904 9.82924 15.0619 9.8274 15.384C9.82556 15.7061 9.93669 15.9779 10.1608 16.1996C10.3849 16.4212 10.6565 16.5321 10.9755 16.5321ZM10.1489 12.996H11.848C11.848 12.4909 11.9055 12.0929 12.0206 11.8021C12.1358 11.5112 12.4609 11.1132 12.996 10.6081C13.394 10.2101 13.7078 9.83108 13.9374 9.47105C14.1671 9.11102 14.2819 8.67873 14.2819 8.1742C14.2819 7.31698 13.9681 6.65876 13.3405 6.19954C12.7129 5.74032 11.9704 5.5107 11.1132 5.5107C10.2407 5.5107 9.53288 5.74032 8.98978 6.19954C8.44667 6.65876 8.06766 7.20983 7.85274 7.85274L9.36818 8.44973C9.44471 8.1742 9.61707 7.87571 9.88526 7.55425C10.1534 7.23279 10.5628 7.07206 11.1132 7.07206C11.6031 7.07206 11.9704 7.20616 12.2154 7.47434C12.4603 7.74253 12.5827 8.03705 12.5827 8.35789C12.5827 8.66404 12.4909 8.95121 12.3072 9.21939C12.1235 9.48758 11.8939 9.73617 11.6184 9.96517C10.9448 10.5622 10.5315 11.0137 10.3785 11.3199C10.2254 11.626 10.1489 12.1847 10.1489 12.996ZM11.0214 20.2059C9.75086 20.2059 8.55688 19.9649 7.43944 19.483C6.322 19.0012 5.34997 18.3466 4.52337 17.5194C3.69677 16.6922 3.04253 15.7202 2.56065 14.6033C2.07877 13.4865 1.83753 12.2925 1.83692 11.0214C1.8363 9.75025 2.07755 8.55627 2.56065 7.43944C3.04375 6.32261 3.69799 5.35059 4.52337 4.52338C5.34875 3.69616 6.32077 3.04192 7.43944 2.56065C8.55811 2.07939 9.75209 1.83814 11.0214 1.83692C12.2907 1.83569 13.4847 2.07694 14.6033 2.56065C15.722 3.04437 16.694 3.69861 17.5194 4.52338C18.3448 5.34814 18.9993 6.32016 19.483 7.43944C19.9667 8.55872 20.2077 9.7527 20.2058 11.0214C20.204 12.2901 19.9628 13.484 19.4821 14.6033C19.0015 15.7226 18.3472 16.6946 17.5194 17.5194C16.6916 18.3442 15.7195 18.9987 14.6033 19.483C13.4871 19.9674 12.2931 20.2083 11.0214 20.2059ZM11.0214 18.369C13.0726 18.369 14.81 17.6572 16.2336 16.2336C17.6572 14.81 18.369 13.0726 18.369 11.0214C18.369 8.97019 17.6572 7.23279 16.2336 5.8092C14.81 4.38561 13.0726 3.67381 11.0214 3.67381C8.97018 3.67381 7.23279 4.38561 5.8092 5.8092C4.3856 7.23279 3.67381 8.97019 3.67381 11.0214C3.67381 13.0726 4.3856 14.81 5.8092 16.2336C7.23279 17.6572 8.97018 18.369 11.0214 18.369Z" fill="#5C5A5A"/>
</svg>
